<?xml version="1.0" encoding="UTF-8"?>
<!-- Created with Inkscape (http://www.inkscape.org/) -->
<svg width="18.734mm" height="18.734mm" version="1.1" viewBox="0 0 18.734 18.734" xmlns="http://www.w3.org/2000/svg" xmlns:cc="http://creativecommons.org/ns#" xmlns:dc="http://purl.org/dc/elements/1.1/" xmlns:rdf="http://www.w3.org/1999/02/22-rdf-syntax-ns#">
 <metadata>
  <rdf:RDF>
   <cc:Work rdf:about="">
    <dc:format>image/svg+xml</dc:format>
    <dc:type rdf:resource="http://purl.org/dc/dcmitype/StillImage"/>
    <dc:title/>
   </cc:Work>
  </rdf:RDF>
 </metadata>
 <g transform="translate(-124.06 -145.14)">
  <circle cx="133.43" cy="154.5" r="9.2698" fill="#651fff" stroke="#651fff" stroke-width=".19473"/>
  <g transform="translate(27.972 29.013)" fill="#fff" stroke-width=".24278" aria-label="GA">
   <path d="m103.92 128.02v-1.9015h-1.5648v-0.78714h2.5132v3.0395q-0.55479 0.39357-1.2234 0.59747-0.66859 0.19915-1.4273 0.19915-1.6596 0-2.5985-0.96733-0.93414-0.97207-0.93414-2.7028 0-1.7355 0.93414-2.7028 0.93888-0.97207 2.5985-0.97207 0.6923 0 1.3135 0.1707 0.62592 0.17071 1.1523 0.50263v1.0195q-0.53108-0.45048-1.1286-0.67808-0.59747-0.22761-1.2566-0.22761-1.2993 0-1.9536 0.7255-0.64963 0.72549-0.64963 2.1623 0 1.432 0.64963 2.1575 0.65437 0.7255 1.9536 0.7255 0.50737 0 0.90568-0.0854 0.39832-0.0901 0.71602-0.27503z"/>
   <path d="m108.98 122.89-1.2993 3.5232h2.6033zm-0.54057-0.94362h1.0859l2.6981 7.0795h-0.99578l-0.64489-1.8161h-3.1912l-0.64489 1.8161h-1.01z"/>
  </g>
 </g>
</svg>
